<svg version="1.1"
      xmlns="http://www.w3.org/2000/svg"
      xmlns:xlink="http://www.w3.org/1999/xlink"  id="snapshot-56683" width="250" height="250" viewBox="0 0 250 250"><desc>This image was made on Patterninja.com</desc><defs>
<!-- image 93963 -->
<g id="transformed-93963" data-image="93963" transform="translate(-54, -125) rotate(32, 54, 125)"><g><svg version="1.1" width="108px" height="250px" viewBox="0 0 108 250"><g id="original-93963"><svg xmlns="http://www.w3.org/2000/svg" viewBox="0 0 32 74" xmlns:xlink="http://www.w3.org/1999/xlink" version="1.1" preserveAspectRatio="xMidYMid meet">
  <path fill-rule="evenodd" d="M16.168 73.236a2.646 2.646 0 0 1-2.646-2.646V49.906h5.292V70.59a2.646 2.646 0 0 1-2.646 2.646z" fill="rgba(83, 71, 65, 0.1)" stroke="none"/>
  <path fill-rule="evenodd" d="M28.84 59.28H3.495a3 3 0 0 1-3-3V22.19c0-8.654 7.016-15.67 15.67-15.67h.005c8.655 0 15.67 7.016 15.67 15.67v34.09a3 3 0 0 1-3 3z" fill="rgba(66, 61, 56, 1)" stroke="none"/>
  <path fill-rule="evenodd" d="M16.168 70.236a2.646 2.646 0 0 1-2.646-2.646V46.906h5.292V67.59a2.646 2.646 0 0 1-2.646 2.646z" fill="rgba(229, 175, 110, 1)" stroke="none"/>
  <path fill-rule="evenodd" d="M28.84 53.28H3.495a3 3 0 0 1-3-3V16.19C.495 7.536 7.511.52 16.165.52h.005c8.655 0 15.67 7.016 15.67 15.67v34.09a3 3 0 0 1-3 3z" fill="rgba(74, 198, 155, 1)" stroke="none"/>
  <path fill-rule="evenodd" d="M28.84 50.28H3.495a3 3 0 0 1-3-3v2a3 3 0 0 0 3 3H28.84a3 3 0 0 0 3-3v-2a3 3 0 0 1-3 3z" fill="rgba(83, 71, 65, 0.1)" stroke="none"/>
  <path fill-rule="evenodd" d="M16.17.902h-.005c-8.27 0-14.974 6.704-14.974 14.975v1.486c0-8.27 6.704-14.974 14.974-14.974h.005c8.27 0 14.975 6.704 14.975 14.974v-1.486C31.145 7.607 24.44.902 16.17.902z" fill="rgba(249, 204, 184, 0.2)" stroke="none"/>
  <path fill-rule="evenodd" d="M9.992 47.08a2.006 2.006 0 0 1-2.006-2.005V16.936a2.006 2.006 0 1 1 4.012 0v28.139a2.006 2.006 0 0 1-2.006 2.006z" fill="rgba(83, 71, 65, 0.1)" stroke="none"/>
  <path fill-rule="evenodd" d="M22.344 47.08a2.006 2.006 0 0 0 2.005-2.005V16.936a2.006 2.006 0 1 0-4.012 0v28.139c0 1.108.899 2.006 2.007 2.006z" fill="rgba(83, 71, 65, 0.1)" stroke="none"/>
</svg>
</g></svg></g></g>
<!-- /image 93963 -->
</defs><rect x="0" y="0" width="250" height="250" fill="rgba(255, 255, 255, 0)"></rect><use xlink:href="#transformed-93963" transform="translate(-250, -250)"></use><use xlink:href="#transformed-93963" transform="translate(0, -250)"></use><use xlink:href="#transformed-93963" transform="translate(250, -250)"></use><use xlink:href="#transformed-93963" transform="translate(-250, 0)"></use><use xlink:href="#transformed-93963" transform="translate(0, 0)"></use><use xlink:href="#transformed-93963" transform="translate(250, 0)"></use><use xlink:href="#transformed-93963" transform="translate(-250, 250)"></use><use xlink:href="#transformed-93963" transform="translate(0, 250)"></use><use xlink:href="#transformed-93963" transform="translate(250, 250)"></use></svg>